<svg xmlns="http://www.w3.org/2000/svg" width="60" height="60" viewBox="0 0 60 60"><g transform="translate(370 -198)"><path fill="#f75478" d="M -340.56641,204.00631 A 23.999998,23.999998 0 0 0 -352,207.2153 a 23.999998,23.999998 0 0 0 -8.78516,32.78515 23.999998,23.999998 0 0 0 32.78516,8.78516 23.999998,23.999998 0 0 0 8.78516,-32.78516 23.999998,23.999998 0 0 0 -21.35157,-11.99414 z m 0.11719,4.99805 a 19.000702,19.000702 0 0 1 16.9043,9.49609 19.000702,19.000702 0 0 1 -6.95508,25.95508 19.000702,19.000702 0 0 1 -25.95508,-6.95508 19.000702,19.000702 0 0 1 6.95508,-25.95508 19.000702,19.000702 0 0 1 9.05078,-2.54101 z"/><path fill="#d5f0f5" d="m -346.34806,216.3847 a 5.3136654,7.5168929 30 0 0 -6.43555,4.37304 5.3136654,7.5168929 30 0 0 0.8418,9.16797 5.3136654,7.5168929 30 0 0 8.36133,-3.85351 5.3136654,7.5168929 30 0 0 -0.84375,-9.16797 5.3136654,7.5168929 30 0 0 -1.92383,-0.51953 z m -4.32031,15.92382 a 2.9527535,2.2275159 0 0 0 -2.95313,2.22657 2.9527535,2.2275159 0 0 0 2.95313,2.22851 2.9527535,2.2275159 0 0 0 2.95117,-2.22851 2.9527535,2.2275159 0 0 0 -2.95117,-2.22657 z"/><path fill="#fb87a4" d="M -340.56641,204.00631 A 23.999998,23.999998 0 0 0 -352,207.2153 a 23.999998,23.999998 0 0 0 -9.47852,31.47656 l 3.79883,-3.79883 a 19.000702,19.000702 0 0 1 8.17969,-23.34766 19.000702,19.000702 0 0 1 9.05078,-2.54101 19.000702,19.000702 0 0 1 7.35938,1.29883 l 3.77734,-3.77735 a 23.999998,23.999998 0 0 0 -11.25391,-2.51953 z m 13.50391,3.80469 -3.64258,3.64258 a 19.000702,19.000702 0 0 1 3.35547,2.40234 l 3.55274,-3.55273 a 23.999998,23.999998 0 0 0 -3.26563,-2.49219 z m 2.88281,9.67773 a 19.000702,19.000702 0 0 1 0.63477,1.01172 19.000702,19.000702 0 0 1 -6.95508,25.95508 19.000702,19.000702 0 0 1 -23.67187,-3.83398 19.000702,19.000702 0 0 1 -2.28321,-3.1211 19.000702,19.000702 0 0 1 -0.0996,-0.19726 l -3.6289,3.6289 a 23.999998,23.999998 0 0 0 2.49414,3.26367 l 3.50781,-3.50781 a 19.000702,19.000702 0 0 0 25.04687,5.57227 19.000702,19.000702 0 0 0 6.95508,-25.95508 19.000702,19.000702 0 0 0 -2,-2.81641 z"/><circle cx="-27.454" cy="-408.449" r="19.001" fill="#a4dff4" transform="rotate(-120)"/><path fill="#d5f0f5" d="m -346.34806,236.76266 a 7.5168929,5.3136654 60 0 1 -6.43555,-4.37305 7.5168929,5.3136654 60 0 1 0.8418,-9.16797 7.5168929,5.3136654 60 0 1 8.36133,3.85352 7.5168929,5.3136654 60 0 1 -0.84375,9.16796 7.5168929,5.3136654 60 0 1 -1.92383,0.51954 z m -4.32031,-15.92383 a 2.9527535,2.2275159 0 0 1 -2.95313,-2.22657 2.9527535,2.2275159 0 0 1 2.95313,-2.22851 2.9527535,2.2275159 0 0 1 2.95117,2.22851 2.9527535,2.2275159 0 0 1 -2.95117,2.22657 z"/><circle cx="-340" cy="228" r="2.5" fill="#fbd84d"/><path fill="#2d3a66" style="line-height:normal;text-indent:0;text-align:start;text-decoration-line:none;text-decoration-style:solid;text-decoration-color:#000;text-transform:none;block-progression:tb;isolation:auto;mix-blend-mode:normal" d="m -340.58984,203.00586 c -4.18729,0.099 -8.28289,1.24942 -11.91016,3.34375 -11.94761,6.89745 -16.04831,22.20306 -9.15039,34.15039 6.89746,11.9476 22.20306,16.05027 34.15039,9.15234 11.9476,-6.89746 16.04831,-22.20501 9.15039,-34.15234 -4.57037,-7.91684 -13.1014,-12.7099 -22.24023,-12.49414 z m 0.0469,2 c 8.41117,-0.19858 16.25643,4.20766 20.46289,11.49414 6.35746,11.01125 2.59158,25.06288 -8.41992,31.41992 -11.01125,6.35747 -25.06288,2.59158 -31.41992,-8.41992 -6.35746,-11.01125 -2.59157,-25.06094 8.41992,-31.41797 3.33715,-1.92681 7.10464,-2.98513 10.95703,-3.07617 z M -340,208 c -11.03385,0 -20,8.96615 -20,20 0,4.47859 1.47574,8.62426 3.9668,11.95898 a 1.0005843,1.0005843 0 0 0 1.60351,-1.19726 C -356.67253,235.75928 -358,232.03987 -358,228 c 0,-9.95297 8.04703,-18 18,-18 9.95297,0 18,8.04703 18,18 0,9.95298 -8.04703,18 -18,18 -2.90317,0 -5.63882,-0.68454 -8.06445,-1.90234 a 1.0001196,1.0001196 0 1 0 -0.89844,1.78711 C -346.26669,247.2384 -343.21845,248 -340,248 c 11.03385,0 20,-8.96614 20,-20 0,-11.03385 -8.96615,-20 -20,-20 z m -0.0156,3.98633 A 1.0001,1.0001 0 0 0 -341,213 l 0,2 a 1.0001,1.0001 0 1 0 2,0 l 0,-2 a 1.0001,1.0001 0 0 0 -1.01562,-1.01367 z m -10.60157,4.39648 a 1.0001,1.0001 0 0 0 -0.69726,1.7168 l 1.41406,1.41601 a 1.0012773,1.0012773 0 0 0 1.41601,-1.41601 l -1.41601,-1.41406 a 1.0001,1.0001 0 0 0 -0.7168,-0.30274 z m 21.20508,0 a 1.0001,1.0001 0 0 0 -0.6875,0.30274 l -1.41601,1.41406 a 1.0012745,1.0012745 0 0 0 1.41601,1.41601 l 1.41406,-1.41601 a 1.0001,1.0001 0 0 0 -0.72656,-1.7168 z m -0.15039,4.61133 a 1.0001,1.0001 0 0 0 -0.54492,0.14063 l -7.5,4.33007 C -338.23557,224.87148 -339.07557,224.5 -340,224.5 c -1.92115,0 -3.5,1.57885 -3.5,3.5 0,0.27876 0.0428,0.54607 0.10547,0.80664 l -1.43555,0.82813 a 1.0001599,1.0001599 0 1 0 1,1.73242 l 1.43946,-0.83203 c 0.62803,0.59275 1.46672,0.96484 2.39062,0.96484 1.92115,0 3.5,-1.57885 3.5,-3.5 0,-0.27811 -0.043,-0.54467 -0.10547,-0.80469 l 7.49805,-4.32812 a 1.0001,1.0001 0 0 0 -0.45508,-1.87305 z M -340,226.5 c 0.84027,0 1.5,0.65973 1.5,1.5 0,0.84027 -0.65973,1.5 -1.5,1.5 -0.84027,0 -1.5,-0.65973 -1.5,-1.5 0,-0.84027 0.65973,-1.5 1.5,-1.5 z m -15,0.5 a 1.0001,1.0001 0 1 0 0,2 l 2,0 a 1.0001,1.0001 0 1 0 0,-2 l -2,0 z m 28,0 a 1.0001,1.0001 0 1 0 0,2 l 2,0 a 1.0001,1.0001 0 1 0 0,-2 l -2,0 z m -3.81836,9.18164 a 1.0001,1.0001 0 0 0 -0.69726,1.71875 l 1.41601,1.41406 a 1.0001,1.0001 0 1 0 1.41406,-1.41406 l -1.41406,-1.41601 a 1.0001,1.0001 0 0 0 -0.71875,-0.30274 z m -18.39453,0.002 a 1.0001,1.0001 0 0 0 -0.6875,0.30079 l -1.41406,1.41601 a 1.0001,1.0001 0 1 0 1.41406,1.41406 l 1.41601,-1.41406 a 1.0001,1.0001 0 0 0 -0.72851,-1.7168 z m 9.19727,3.80274 A 1.0001,1.0001 0 0 0 -341,241 l 0,2 a 1.0001,1.0001 0 1 0 2,0 l 0,-2 a 1.0001,1.0001 0 0 0 -1.01562,-1.01367 z m -12.46094,1.3164 a 1.0001,1.0001 0 0 0 -0.67969,1.76172 c 0.25694,0.22461 0.51885,0.44291 0.78711,0.6543 a 1.0006711,1.0006711 0 1 0 1.23828,-1.57227 c -0.24158,-0.19037 -0.47765,-0.38566 -0.70898,-0.58789 a 1.0001,1.0001 0 0 0 -0.63672,-0.25586 z" color="#000" font-family="sans-serif" font-weight="400" overflow="visible"/><path fill="#6e809d" fill-rule="evenodd" d="m -349.35156,217.23287 a 5.3136654,7.5168929 30 0 0 -1.61914,1.21289 l 1.07031,1.07032 a 1.0012773,1.0012773 0 0 0 1.41602,-1.41602 l -0.86719,-0.86719 z m -4.59961,9.76758 a 5.3136654,7.5168929 30 0 0 0.9375,2 l 0.0137,0 a 1.0001,1.0001 0 1 0 0,-2 l -0.95117,0 z m 4.73828,9.1836 a 1.0001,1.0001 0 0 0 -0.6875,0.30078 l -0.24023,0.24023 a 2.9527535,2.2275159 0 0 0 1.33984,-0.4668 1.0001,1.0001 0 0 0 -0.41211,-0.0742 z" color="#000" font-family="sans-serif" font-weight="400" overflow="visible" style="line-height:normal;text-indent:0;text-align:start;text-decoration-line:none;text-decoration-style:solid;text-decoration-color:#000;text-transform:none;block-progression:tb;isolation:auto;mix-blend-mode:normal"/></g></svg>